<svg width="208" height="340" viewBox="0 0 208 340" fill="none" xmlns="http://www.w3.org/2000/svg">
<g opacity="0.15">
<circle cx="203" cy="137" r="5" transform="rotate(90 203 137)" fill="#465A3E"/>
<circle cx="203" cy="5" r="5" transform="rotate(90 203 5)" fill="#465A3E"/>
<circle cx="203" cy="159" r="5" transform="rotate(90 203 159)" fill="#465A3E"/>
<circle cx="203" cy="27" r="5" transform="rotate(90 203 27)" fill="#465A3E"/>
<circle cx="203" cy="181" r="5" transform="rotate(90 203 181)" fill="#465A3E"/>
<circle cx="203" cy="49" r="5" transform="rotate(90 203 49)" fill="#465A3E"/>
<circle cx="203" cy="203" r="5" transform="rotate(90 203 203)" fill="#465A3E"/>
<circle cx="203" cy="71" r="5" transform="rotate(90 203 71)" fill="#465A3E"/>
<circle cx="203" cy="225" r="5" transform="rotate(90 203 225)" fill="#465A3E"/>
<circle cx="203" cy="93" r="5" transform="rotate(90 203 93)" fill="#465A3E"/>
<circle cx="203" cy="247" r="5" transform="rotate(90 203 247)" fill="#465A3E"/>
<circle cx="203" cy="115" r="5" transform="rotate(90 203 115)" fill="#465A3E"/>
<circle cx="203" cy="269" r="5" transform="rotate(90 203 269)" fill="#465A3E"/>
<circle cx="203" cy="291" r="5" transform="rotate(90 203 291)" fill="#465A3E"/>
<circle cx="203" cy="313" r="5" transform="rotate(90 203 313)" fill="#465A3E"/>
<circle cx="203" cy="335" r="5" transform="rotate(90 203 335)" fill="#465A3E"/>
<circle cx="181" cy="137" r="5" transform="rotate(90 181 137)" fill="#465A3E"/>
<circle cx="181" cy="5" r="5" transform="rotate(90 181 5)" fill="#465A3E"/>
<circle cx="181" cy="159" r="5" transform="rotate(90 181 159)" fill="#465A3E"/>
<circle cx="181" cy="27" r="5" transform="rotate(90 181 27)" fill="#465A3E"/>
<circle cx="181" cy="181" r="5" transform="rotate(90 181 181)" fill="#465A3E"/>
<circle cx="181" cy="49" r="5" transform="rotate(90 181 49)" fill="#465A3E"/>
<circle cx="181" cy="203" r="5" transform="rotate(90 181 203)" fill="#465A3E"/>
<circle cx="181" cy="71" r="5" transform="rotate(90 181 71)" fill="#465A3E"/>
<circle cx="181" cy="225" r="5" transform="rotate(90 181 225)" fill="#465A3E"/>
<circle cx="181" cy="93" r="5" transform="rotate(90 181 93)" fill="#465A3E"/>
<circle cx="181" cy="247" r="5" transform="rotate(90 181 247)" fill="#465A3E"/>
<circle cx="181" cy="115" r="5" transform="rotate(90 181 115)" fill="#465A3E"/>
<circle cx="181" cy="269" r="5" transform="rotate(90 181 269)" fill="#465A3E"/>
<circle cx="181" cy="291" r="5" transform="rotate(90 181 291)" fill="#465A3E"/>
<circle cx="181" cy="313" r="5" transform="rotate(90 181 313)" fill="#465A3E"/>
<circle cx="181" cy="335" r="5" transform="rotate(90 181 335)" fill="#465A3E"/>
<circle cx="159" cy="137" r="5" transform="rotate(90 159 137)" fill="#465A3E"/>
<circle cx="159" cy="5" r="5" transform="rotate(90 159 5)" fill="#465A3E"/>
<circle cx="159" cy="159" r="5" transform="rotate(90 159 159)" fill="#465A3E"/>
<circle cx="159" cy="27" r="5" transform="rotate(90 159 27)" fill="#465A3E"/>
<circle cx="159" cy="181" r="5" transform="rotate(90 159 181)" fill="#465A3E"/>
<circle cx="159" cy="49" r="5" transform="rotate(90 159 49)" fill="#465A3E"/>
<circle cx="159" cy="203" r="5" transform="rotate(90 159 203)" fill="#465A3E"/>
<circle cx="159" cy="71" r="5" transform="rotate(90 159 71)" fill="#465A3E"/>
<circle cx="159" cy="225" r="5" transform="rotate(90 159 225)" fill="#465A3E"/>
<circle cx="159" cy="93" r="5" transform="rotate(90 159 93)" fill="#465A3E"/>
<circle cx="159" cy="247" r="5" transform="rotate(90 159 247)" fill="#465A3E"/>
<circle cx="159" cy="115" r="5" transform="rotate(90 159 115)" fill="#465A3E"/>
<circle cx="159" cy="269" r="5" transform="rotate(90 159 269)" fill="#465A3E"/>
<circle cx="159" cy="291" r="5" transform="rotate(90 159 291)" fill="#465A3E"/>
<circle cx="159" cy="313" r="5" transform="rotate(90 159 313)" fill="#465A3E"/>
<circle cx="159" cy="335" r="5" transform="rotate(90 159 335)" fill="#465A3E"/>
<circle cx="137" cy="137" r="5" transform="rotate(90 137 137)" fill="#465A3E"/>
<circle cx="137" cy="5" r="5" transform="rotate(90 137 5)" fill="#465A3E"/>
<circle cx="137" cy="159" r="5" transform="rotate(90 137 159)" fill="#465A3E"/>
<circle cx="137" cy="27" r="5" transform="rotate(90 137 27)" fill="#465A3E"/>
<circle cx="137" cy="181" r="5" transform="rotate(90 137 181)" fill="#465A3E"/>
<circle cx="137" cy="49" r="5" transform="rotate(90 137 49)" fill="#465A3E"/>
<circle cx="137" cy="203" r="5" transform="rotate(90 137 203)" fill="#465A3E"/>
<circle cx="137" cy="71" r="5" transform="rotate(90 137 71)" fill="#465A3E"/>
<circle cx="137" cy="225" r="5" transform="rotate(90 137 225)" fill="#465A3E"/>
<circle cx="137" cy="93" r="5" transform="rotate(90 137 93)" fill="#465A3E"/>
<circle cx="137" cy="247" r="5" transform="rotate(90 137 247)" fill="#465A3E"/>
<circle cx="137" cy="115" r="5" transform="rotate(90 137 115)" fill="#465A3E"/>
<circle cx="137" cy="269" r="5" transform="rotate(90 137 269)" fill="#465A3E"/>
<circle cx="137" cy="291" r="5" transform="rotate(90 137 291)" fill="#465A3E"/>
<circle cx="137" cy="313" r="5" transform="rotate(90 137 313)" fill="#465A3E"/>
<circle cx="137" cy="335" r="5" transform="rotate(90 137 335)" fill="#465A3E"/>
<circle cx="115" cy="137" r="5" transform="rotate(90 115 137)" fill="#465A3E"/>
<circle cx="115" cy="5" r="5" transform="rotate(90 115 5)" fill="#465A3E"/>
<circle cx="115" cy="159" r="5" transform="rotate(90 115 159)" fill="#465A3E"/>
<circle cx="115" cy="27" r="5" transform="rotate(90 115 27)" fill="#465A3E"/>
<circle cx="115" cy="181" r="5" transform="rotate(90 115 181)" fill="#465A3E"/>
<circle cx="115" cy="49" r="5" transform="rotate(90 115 49)" fill="#465A3E"/>
<circle cx="115" cy="203" r="5" transform="rotate(90 115 203)" fill="#465A3E"/>
<circle cx="115" cy="71" r="5" transform="rotate(90 115 71)" fill="#465A3E"/>
<circle cx="115" cy="225" r="5" transform="rotate(90 115 225)" fill="#465A3E"/>
<circle cx="115" cy="93" r="5" transform="rotate(90 115 93)" fill="#465A3E"/>
<circle cx="115" cy="247" r="5" transform="rotate(90 115 247)" fill="#465A3E"/>
<circle cx="115" cy="115" r="5" transform="rotate(90 115 115)" fill="#465A3E"/>
<circle cx="115" cy="269" r="5" transform="rotate(90 115 269)" fill="#465A3E"/>
<circle cx="115" cy="291" r="5" transform="rotate(90 115 291)" fill="#465A3E"/>
<circle cx="115" cy="313" r="5" transform="rotate(90 115 313)" fill="#465A3E"/>
<circle cx="115" cy="335" r="5" transform="rotate(90 115 335)" fill="#465A3E"/>
<circle cx="93" cy="137" r="5" transform="rotate(90 93 137)" fill="#465A3E"/>
<circle cx="93" cy="5" r="5" transform="rotate(90 93 5)" fill="#465A3E"/>
<circle cx="93" cy="159" r="5" transform="rotate(90 93 159)" fill="#465A3E"/>
<circle cx="93" cy="27" r="5" transform="rotate(90 93 27)" fill="#465A3E"/>
<circle cx="93" cy="181" r="5" transform="rotate(90 93 181)" fill="#465A3E"/>
<circle cx="93" cy="49" r="5" transform="rotate(90 93 49)" fill="#465A3E"/>
<circle cx="93" cy="203" r="5" transform="rotate(90 93 203)" fill="#465A3E"/>
<circle cx="93" cy="71" r="5" transform="rotate(90 93 71)" fill="#465A3E"/>
<circle cx="93" cy="225" r="5" transform="rotate(90 93 225)" fill="#465A3E"/>
<circle cx="93" cy="93" r="5" transform="rotate(90 93 93)" fill="#465A3E"/>
<circle cx="93" cy="247" r="5" transform="rotate(90 93 247)" fill="#465A3E"/>
<circle cx="93" cy="115" r="5" transform="rotate(90 93 115)" fill="#465A3E"/>
<circle cx="93" cy="269" r="5" transform="rotate(90 93 269)" fill="#465A3E"/>
<circle cx="93" cy="291" r="5" transform="rotate(90 93 291)" fill="#465A3E"/>
<circle cx="93" cy="313" r="5" transform="rotate(90 93 313)" fill="#465A3E"/>
<circle cx="93" cy="335" r="5" transform="rotate(90 93 335)" fill="#465A3E"/>
<circle cx="71" cy="137" r="5" transform="rotate(90 71 137)" fill="#465A3E"/>
<circle cx="71" cy="5" r="5" transform="rotate(90 71 5)" fill="#465A3E"/>
<circle cx="71" cy="159" r="5" transform="rotate(90 71 159)" fill="#465A3E"/>
<circle cx="71" cy="27" r="5" transform="rotate(90 71 27)" fill="#465A3E"/>
<circle cx="71" cy="181" r="5" transform="rotate(90 71 181)" fill="#465A3E"/>
<circle cx="71" cy="49" r="5" transform="rotate(90 71 49)" fill="#465A3E"/>
<circle cx="71" cy="203" r="5" transform="rotate(90 71 203)" fill="#465A3E"/>
<circle cx="71" cy="71" r="5" transform="rotate(90 71 71)" fill="#465A3E"/>
<circle cx="71" cy="225" r="5" transform="rotate(90 71 225)" fill="#465A3E"/>
<circle cx="71" cy="93" r="5" transform="rotate(90 71 93)" fill="#465A3E"/>
<circle cx="71" cy="247" r="5" transform="rotate(90 71 247)" fill="#465A3E"/>
<circle cx="71" cy="115" r="5" transform="rotate(90 71 115)" fill="#465A3E"/>
<circle cx="71" cy="269" r="5" transform="rotate(90 71 269)" fill="#465A3E"/>
<circle cx="71" cy="291" r="5" transform="rotate(90 71 291)" fill="#465A3E"/>
<circle cx="71" cy="313" r="5" transform="rotate(90 71 313)" fill="#465A3E"/>
<circle cx="71" cy="335" r="5" transform="rotate(90 71 335)" fill="#465A3E"/>
<circle cx="49" cy="137" r="5" transform="rotate(90 49 137)" fill="#465A3E"/>
<circle cx="49" cy="5" r="5" transform="rotate(90 49 5)" fill="#465A3E"/>
<circle cx="49" cy="159" r="5" transform="rotate(90 49 159)" fill="#465A3E"/>
<circle cx="49" cy="27" r="5" transform="rotate(90 49 27)" fill="#465A3E"/>
<circle cx="49" cy="181" r="5" transform="rotate(90 49 181)" fill="#465A3E"/>
<circle cx="49" cy="49" r="5" transform="rotate(90 49 49)" fill="#465A3E"/>
<circle cx="49" cy="203" r="5" transform="rotate(90 49 203)" fill="#465A3E"/>
<circle cx="49" cy="71" r="5" transform="rotate(90 49 71)" fill="#465A3E"/>
<circle cx="49" cy="225" r="5" transform="rotate(90 49 225)" fill="#465A3E"/>
<circle cx="49" cy="93" r="5" transform="rotate(90 49 93)" fill="#465A3E"/>
<circle cx="49" cy="247" r="5" transform="rotate(90 49 247)" fill="#465A3E"/>
<circle cx="49" cy="115" r="5" transform="rotate(90 49 115)" fill="#465A3E"/>
<circle cx="49" cy="269" r="5" transform="rotate(90 49 269)" fill="#465A3E"/>
<circle cx="49" cy="291" r="5" transform="rotate(90 49 291)" fill="#465A3E"/>
<circle cx="49" cy="313" r="5" transform="rotate(90 49 313)" fill="#465A3E"/>
<circle cx="49" cy="335" r="5" transform="rotate(90 49 335)" fill="#465A3E"/>
<circle cx="27" cy="137" r="5" transform="rotate(90 27 137)" fill="#465A3E"/>
<circle cx="27" cy="5" r="5" transform="rotate(90 27 5)" fill="#465A3E"/>
<circle cx="27" cy="159" r="5" transform="rotate(90 27 159)" fill="#465A3E"/>
<circle cx="27" cy="27" r="5" transform="rotate(90 27 27)" fill="#465A3E"/>
<circle cx="27" cy="181" r="5" transform="rotate(90 27 181)" fill="#465A3E"/>
<circle cx="27" cy="49" r="5" transform="rotate(90 27 49)" fill="#465A3E"/>
<circle cx="27" cy="203" r="5" transform="rotate(90 27 203)" fill="#465A3E"/>
<circle cx="27" cy="71" r="5" transform="rotate(90 27 71)" fill="#465A3E"/>
<circle cx="27" cy="225" r="5" transform="rotate(90 27 225)" fill="#465A3E"/>
<circle cx="27" cy="93" r="5" transform="rotate(90 27 93)" fill="#465A3E"/>
<circle cx="27" cy="247" r="5" transform="rotate(90 27 247)" fill="#465A3E"/>
<circle cx="27" cy="115" r="5" transform="rotate(90 27 115)" fill="#465A3E"/>
<circle cx="27" cy="269" r="5" transform="rotate(90 27 269)" fill="#465A3E"/>
<circle cx="27" cy="291" r="5" transform="rotate(90 27 291)" fill="#465A3E"/>
<circle cx="27" cy="313" r="5" transform="rotate(90 27 313)" fill="#465A3E"/>
<circle cx="27" cy="335" r="5" transform="rotate(90 27 335)" fill="#465A3E"/>
<circle cx="5.00001" cy="137" r="5" transform="rotate(90 5.00001 137)" fill="#465A3E"/>
<circle cx="5.00002" cy="5" r="5" transform="rotate(90 5.00002 5)" fill="#465A3E"/>
<circle cx="5.00001" cy="159" r="5" transform="rotate(90 5.00001 159)" fill="#465A3E"/>
<circle cx="5.00002" cy="27" r="5" transform="rotate(90 5.00002 27)" fill="#465A3E"/>
<circle cx="5.00001" cy="181" r="5" transform="rotate(90 5.00001 181)" fill="#465A3E"/>
<circle cx="5.00001" cy="49" r="5" transform="rotate(90 5.00001 49)" fill="#465A3E"/>
<circle cx="5.00001" cy="203" r="5" transform="rotate(90 5.00001 203)" fill="#465A3E"/>
<circle cx="5.00001" cy="71" r="5" transform="rotate(90 5.00001 71)" fill="#465A3E"/>
<circle cx="5" cy="225" r="5" transform="rotate(90 5 225)" fill="#465A3E"/>
<circle cx="5.00001" cy="93" r="5" transform="rotate(90 5.00001 93)" fill="#465A3E"/>
<circle cx="5" cy="247" r="5" transform="rotate(90 5 247)" fill="#465A3E"/>
<circle cx="5.00001" cy="115" r="5" transform="rotate(90 5.00001 115)" fill="#465A3E"/>
<circle cx="5" cy="269" r="5" transform="rotate(90 5 269)" fill="#465A3E"/>
<circle cx="5" cy="291" r="5" transform="rotate(90 5 291)" fill="#465A3E"/>
<circle cx="5" cy="313" r="5" transform="rotate(90 5 313)" fill="#465A3E"/>
<circle cx="5" cy="335" r="5" transform="rotate(90 5 335)" fill="#465A3E"/>
</g>
</svg>
